<svg aria-hidden="true" focusable="false" data-prefix="fab" data-icon="bluesky" class="svg-inline--fa fa-bluesky fa-w-12" role="img" xmlns="http://www.w3.org/2000/svg" viewBox="0 0 512 512"><path fill="currentColor" d="m113.25 61.871c57.782 43.379 119.93 131.34 142.75 178.54 22.821-47.199 84.969-135.16 142.75-178.54 41.693-31.301 109.25-55.52 109.25 21.546 0 15.392-8.8244 129.29-14 147.79-17.991 64.289-83.546 80.687-141.86 70.762 101.93 17.348 127.86 74.811 71.861 132.27-106.35 109.13-152.86-27.382-164.78-62.362-2.1844-6.4127-3.2067-9.4129-3.2219-6.8615-0.0152-2.5514-1.0368 0.44882-3.2217 6.8615-11.917 34.98-58.423 171.5-164.78 62.362-56-57.463-30.07-114.93 71.861-132.27-58.315 9.9246-123.87-6.4732-141.86-70.762-5.1758-18.494-14-132.4-14-147.79 0-77.066 67.556-52.847 109.25-21.546z"></path></svg>