<?xml version="1.0" standalone="yes"?>
<svg xmlns="http://www.w3.org/2000/svg" width="3000" height="1496">
<path style="fill:#ffffff; stroke:none;" d="M0 0L0 582L1 582C1 535.706 9.92564 488.804 21.1265 444C28.7763 413.401 38.8901 383.275 50.6003 354C109.976 205.566 222.819 55.3199 391 30.4275C434.972 23.9192 483.047 26.7378 525 42.4244C550.925 52.118 578.137 74.8672 606 76.9097C637.868 79.2457 649.159 49.0729 665.668 28C682.746 6.20044 711.917 -5.13916 739 3.34717C747.435 5.99011 755.339 10.3304 762 16.1844C789.585 40.4255 791.026 76.1188 776.694 108C766.078 131.617 751.615 153.245 739.309 176C722.279 207.488 707.953 240.492 695.424 274C677.356 322.323 672.106 376.232 650.691 423C635.778 455.571 607.472 481.662 570 479.961C523.866 477.866 510.906 420.394 515.05 384C521.681 325.771 568.664 261.957 531.304 205C526.635 197.881 520.602 191.796 514 186.461C504.859 179.073 494.069 173.887 483 170.079C385.703 136.6 293.589 213.025 246.8 291C181.509 399.809 149.426 530.61 154.961 657C157.423 713.229 165.214 771.189 191.259 822C203.149 845.196 218.618 866.324 238 883.83C301.502 941.187 397.573 946.774 475 917.575C566.369 883.117 634.202 810.697 687.333 731C703.656 706.516 722.351 683.504 733.548 656C741.295 636.968 744.251 618.393 741.714 598C740.075 584.83 734.241 571.344 735.09 558C737.874 514.269 774.607 456.097 825 462.286C851.894 465.589 879.026 486.118 875.826 516C873.977 533.278 860.374 555.777 876.185 570.671C891.622 585.213 923.731 577.769 943 579.089C980.8 581.681 1016.2 610.647 1026.57 647C1042.75 703.705 1005.87 761.341 997.275 817C994.048 837.902 993.279 872.701 1024 868.711C1044.85 866.002 1060.76 849.956 1072.87 834C1099.56 798.848 1112.81 756.273 1123.37 714C1144.05 631.276 1163.9 543.762 1241 494.218C1253.55 486.15 1266.88 479.247 1281 474.344C1297.78 468.518 1315.23 464.306 1333 463.089C1349.65 461.949 1366.92 463.75 1383 468.152C1439.47 483.609 1471.19 533.147 1477.17 589C1484.66 658.994 1460.75 735.395 1407 782.714C1381.4 805.251 1350.45 822.188 1317 829.576C1301.35 833.031 1269.78 829.495 1259.85 844.015C1251.73 855.898 1257.37 876.33 1261 889C1273.61 932.981 1313 965.518 1360 953.116C1399.99 942.562 1432.44 909.204 1457.4 878C1483.32 845.599 1504.5 812.321 1520.58 774C1550.7 702.211 1569.07 626.973 1633 576.004C1668.91 547.37 1710.45 534 1756 534C1775.08 534 1796.9 534.101 1801.98 511C1804.78 498.315 1803.2 483.973 1804.09 471C1805.71 447.331 1807.88 423.624 1810.17 400C1819.28 305.893 1834.69 208.944 1864.67 119C1875.81 85.5752 1890.73 53.9098 1913.87 27C1924.04 15.1688 1938.73 2.4209 1955 1C1942.35 -4.30615 1919.78 0 1906 0L1791 0L1390 0L0 0z"/>
<path style="fill:#f36d21; stroke:none;" d="M1955 0.438965C1934.93 3.59827 1919.15 18.3918 1907.37 34C1887.55 60.2606 1874.36 88.9105 1864 120C1834.27 209.218 1819.2 305.67 1810.17 399C1807.88 422.624 1805.71 446.331 1804.09 470C1803.26 482.108 1804.44 495.047 1802.56 507C1800.24 521.723 1789.76 531.788 1775 533.711C1761.49 535.471 1747.56 532.879 1734 534.17C1696.07 537.782 1660.59 552.924 1631 576.805C1568.33 627.383 1550.27 702.227 1520.58 773C1504.32 811.746 1482.81 845.253 1456.6 878C1427.75 914.047 1384.24 958.18 1334 955.961C1295.03 954.239 1267.88 917.8 1259.65 883C1256.96 871.606 1252.78 855.516 1259.85 845.004C1269.89 830.077 1297.29 833.742 1313 830.6C1344.41 824.32 1373.91 810.17 1399 790.335C1456 745.271 1481.14 671.764 1478.04 601C1475.65 546.547 1452.38 497.834 1401 474.309C1386.49 467.665 1370.79 464.673 1355 463.17C1335.19 461.285 1314.06 464.202 1295 469.579C1277.81 474.43 1261.33 481.252 1246 490.449C1159.05 542.62 1144.23 638.763 1119.42 728C1108.41 767.641 1094.78 806.895 1068.08 839C1056.48 852.948 1041 867.15 1022 868.826C993.58 871.331 994.33 837.072 997.275 818C1005.9 762.118 1042.17 705.068 1027.12 648C1017.35 610.975 982.319 581.716 944 579.089C924.261 577.736 891.654 585.283 876.185 569.815C860.99 554.62 873.967 534.355 875.826 517C879.107 486.377 853.475 464.926 825 462.17C774.085 457.242 738.157 511.958 735.089 557C733.375 582.184 746.933 605.185 741.112 631C733.112 666.475 711.372 694.569 691.344 724C643.796 793.872 589.889 857.601 515 899.139C422.344 950.531 294.93 950.634 221.289 866C196.275 837.251 180.042 801.564 170.151 765C156.174 713.329 152.631 659.203 154.961 606C159.972 491.555 192.762 375.918 254.95 279C301.602 206.293 390.209 140.321 481 169.745C492.846 173.584 504.4 179.302 514 187.286C574.642 237.719 528.586 313.965 516.4 375C510.191 406.096 513.893 445.724 540.004 467.384C573.338 495.037 619.653 474.351 640.921 442C663.636 407.448 668.289 363.046 679.421 324C693.774 273.659 714.276 225.465 738.258 179C757.497 141.727 791.538 102.845 785.711 58C780.736 19.7167 743.406 -5.62708 706 1.80786C687.514 5.48218 672.609 16.6807 662.026 32C649.69 49.8553 637.628 75.1122 613 76.9097C594.017 78.2952 575.938 65.9285 560 57.3087C543.653 48.4675 525.965 41.6078 508 36.8843C427.839 15.8075 342.239 31.0786 271 72.4244C195.202 116.417 138.695 184.793 95.5787 260C7.19548 414.165 -17.6212 591.896 11.5864 766C30.7929 880.488 87.1374 1000.43 193 1057.69C226.08 1075.58 264.833 1085.97 302 1090.71C469.096 1112.04 623.286 1013.64 725.389 888C763.954 840.543 796.058 788.176 820.281 732C827.36 715.583 838.753 686.214 862.015 691.369C912.167 702.483 884.443 766.559 874.333 797C849.675 871.248 831.638 980.391 913 1027.99C924.09 1034.48 937.247 1038.99 950 1040.71C996.235 1046.94 1044.68 1029.27 1081 1000.99C1093.65 991.135 1105.38 979.761 1115.12 967C1119.99 960.618 1125.83 951.069 1135 951.199C1145.03 951.342 1151.14 963.123 1154.58 971C1163.95 992.478 1177.03 1011.74 1194 1027.96C1235.15 1067.31 1287.12 1078.26 1342 1078C1388.47 1077.78 1436.62 1052.66 1472 1024.4C1485.88 1013.31 1498.61 1001.05 1512 989.424C1516.41 985.594 1521.81 978.322 1528 977.607C1534.21 976.891 1539.1 983.226 1541.68 988C1550.05 1003.54 1556.21 1018.21 1567.75 1032C1593.11 1062.31 1633.64 1079.95 1673 1078.99C1704.61 1078.21 1737.41 1066.06 1761 1044.83C1775.44 1031.83 1790.59 1002.47 1813 1003.47C1836.06 1004.5 1842.07 1042.34 1854.44 1057C1879.57 1086.77 1923.04 1090.79 1958 1079C1999.58 1064.97 2030.92 1030.7 2057.12 997C2066.18 985.337 2074.8 972.657 2085.04 962.001C2089.53 957.326 2095.01 952.074 2102 952.198C2116.07 952.449 2123.08 981.255 2130.16 991C2147.6 1015.03 2172.75 1032.23 2201 1040.97C2255.19 1057.75 2313.28 1037.37 2357 1004.52C2376.23 990.08 2397.08 957.328 2423 956.105C2445.61 955.038 2453.4 987.878 2462.61 1003C2477.6 1027.61 2507.97 1043.59 2537 1040.83C2566.43 1038.03 2594.04 1022.22 2612.33 999C2621.01 987.992 2625.95 973.9 2636.04 964.045C2642.57 957.67 2647.64 961.169 2650.25 969C2654.02 980.315 2653 993.249 2653 1005C2653 1035.01 2647.72 1064.28 2644.16 1094C2642.37 1108.88 2641.89 1128.39 2626 1135.47C2613.13 1141.2 2597.35 1136.45 2584 1135.17C2555.75 1132.47 2527.32 1130.03 2499 1128.09C2400.09 1121.32 2291.53 1131.32 2224.8 1214C2213.58 1227.91 2204.43 1243.58 2197.43 1260C2189.08 1279.57 2184 1300.68 2184 1322C2184 1340.1 2185.15 1357.71 2191.08 1375C2195.99 1389.34 2202.82 1402.49 2211.34 1415C2265.29 1494.24 2369.22 1507.24 2456 1487.35C2552.57 1465.22 2641.68 1406.11 2694.95 1322C2708.27 1300.97 2719.94 1278.49 2728.31 1255C2731.93 1244.82 2733.97 1224.03 2741.43 1216.42C2746.56 1211.2 2758.25 1209.15 2765 1206.4C2780.9 1199.92 2796.09 1192.21 2811 1183.72C2850.33 1161.31 2884.54 1130.25 2913.87 1096C2945.59 1058.96 2972.96 1013.78 2992.28 969C3000.82 949.221 3005.28 923.837 2991.96 905C2978.12 885.438 2946.01 881.852 2928.17 898.329C2911.47 913.756 2902.82 939.73 2891.4 959C2874.8 986.986 2853.83 1011.53 2832.58 1036C2820.35 1050.07 2806.27 1062.91 2793 1076C2788.23 1080.7 2779.94 1088.08 2775.18 1078.98C2770.77 1070.55 2775.92 1054.12 2776.83 1045C2779.7 1016.32 2782.76 987.669 2785.83 959C2797.62 848.89 2811.88 738.695 2827.13 629C2828.93 616.022 2830.6 603.01 2832.16 590C2836.94 550.021 2852.69 494.168 2806 472.323C2799.98 469.509 2793.62 468.03 2787 468.001C2743.65 467.808 2728.94 512.203 2719 547C2694.89 631.386 2694.93 724.184 2650.42 802C2636.33 826.633 2610.66 871.163 2576 863.32C2535.55 854.168 2539 799.244 2539 768C2539 722.829 2547.34 676.473 2559.42 633C2566.18 608.696 2576.72 584.931 2580.92 560C2585.9 530.417 2586.37 497.283 2558 479.09C2551.91 475.185 2545 472.27 2538 470.478C2493.1 458.99 2465.62 495.34 2451.68 533C2414.5 633.482 2430.72 748.719 2366.14 839C2347.99 864.37 2326.52 892.249 2300 909.302C2285.56 918.584 2268.01 923.76 2252 915.099C2230.49 903.466 2222.05 878.763 2218.87 856C2213.51 817.641 2215 780.515 2215 742C2215 678.284 2244.39 614.931 2265.95 556C2305.45 448.002 2350.29 338.997 2369.41 225C2377.9 174.388 2384.77 119.851 2374.6 69C2369 41.019 2354.32 13.8136 2326 3.69836C2316.74 0.391113 2307.71 0 2298 0C2221.37 0 2192.64 85.9231 2177.37 147C2148.7 261.679 2130.69 380.844 2115.28 498C2105.05 575.787 2102.61 660.055 2074.95 734C2055.85 785.05 2028.51 835.777 2001.42 883C1992.01 899.405 1977.21 922.972 1955 920.823C1931.35 918.534 1926.4 889.738 1923.73 871C1916.37 819.374 1925.88 767.731 1935.39 717C1957.6 598.437 1979.01 479.711 2000.42 361C2012.49 294.117 2029.35 228.804 2035.83 161C2036.74 151.467 2037.88 141.568 2038 132C2038.55 85.2891 2038.32 12.1565 1979 0.80481C1971.53 -0.625366 1962.53 -0.745728 1955 0.438965z"/>
<path style="fill:#ffffff; stroke:none;" d="M1977 0L1977 1C1999.44 2.83276 2015.73 20.9646 2025.25 40C2045.43 80.3602 2037.93 127.897 2034.91 171C2030.46 234.501 2012.29 296.642 2000.61 359C1978.47 477.192 1956.37 595.536 1935.75 714C1926.71 765.919 1915.99 818.167 1923.58 871C1926.26 889.701 1930.41 918.299 1954 920.826C1978.86 923.489 1993.3 898.319 2003.72 880C2032.19 829.927 2061.73 775.747 2080 721C2090.01 690.993 2093.78 660.175 2098.27 629C2104.5 585.748 2109.58 542.324 2115.28 499C2129.62 389.952 2147.97 280.485 2171.21 173C2181.23 126.653 2193.37 75.0051 2224.59 38C2239.61 20.2 2261.92 2.9668 2286 1L2258 0L2195 0L1977 0M2313 0L2313 1C2343.07 3.45557 2362.74 30.6456 2371.33 57C2388.44 109.505 2377.94 172.871 2369.08 226C2350.19 339.241 2305.17 447.75 2265.95 555C2244.23 614.384 2215 677.807 2215 742C2215 780.841 2213.47 818.316 2218.87 857C2221.97 879.215 2229.97 903.724 2251 915.099C2267.48 924.014 2286.11 918.871 2301 909.302C2328.34 891.725 2350.73 862.487 2368.97 836C2427.64 750.847 2413.98 646.406 2445.33 552C2456.92 517.112 2476.26 467.065 2521 468.259C2558.22 469.252 2586.48 498.506 2583.91 536C2581.59 569.84 2567.91 600.623 2559.15 633C2547.04 677.784 2539 724.572 2539 771C2539 801.313 2535.81 851.679 2573 862.79C2587.22 867.04 2601.88 861.093 2613 852.331C2634.14 835.678 2648.91 807.936 2660.22 784C2696.67 706.842 2697.62 618.872 2721.72 538C2731.36 505.661 2749.43 466.245 2789 468.039C2812.31 469.096 2832.25 490.173 2836.99 512C2844.02 544.427 2832.6 581.509 2828.95 614C2816.02 729.135 2799.84 844.005 2785.72 959C2782.16 987.936 2780.38 1017.11 2776.58 1046C2775.45 1054.54 2770.3 1073.42 2775.74 1080.85C2780.36 1087.16 2787.9 1081.82 2792 1077.96C2804.63 1066.06 2816.97 1053.54 2828.96 1041C2852.85 1016.02 2875.21 987.93 2892.58 958C2903.57 939.062 2912.64 911.575 2930.04 897.529C2954.35 877.91 2994.3 891.209 2999 923L3000 923L3000 0L2313 0M1333 577.529C1318.87 580.772 1308.71 593.73 1300.89 605C1282.17 631.966 1269.87 663.902 1263.45 696C1259.59 715.28 1255.41 748.822 1285 743.671C1296.56 741.66 1307.02 733.579 1316 726.576C1344.06 704.705 1363.15 666.941 1368.58 632C1372.15 608.981 1365.41 570.093 1333 577.529M1767 632.424C1674.03 644.518 1639 746.004 1639 828C1639 867.476 1648.04 937.966 1702 932.83C1748 928.453 1793.7 879.903 1800.7 835C1802.98 820.431 1800.09 806.535 1799.09 792C1797.63 770.642 1797.74 749.303 1798 728C1798.17 713.229 1798.38 698.677 1800.16 684C1801.35 674.15 1804.41 663.968 1802.53 654C1799.4 637.389 1782.59 630.397 1767 632.424M0 664L0 1496L2363 1496L2363 1495C2339.63 1495 2315.49 1488.17 2294 1479.4C2272.41 1470.58 2253.55 1457.8 2236 1442.58C2224.99 1433.03 2215.98 1421.12 2208 1409C2149.43 1319.99 2204.94 1205.96 2291 1159.31C2356.51 1123.79 2438.46 1122.24 2511 1129.17C2538.31 1131.78 2565.7 1133.43 2593 1136.17C2605.06 1137.38 2618.96 1140.94 2630 1133.87C2642.44 1125.88 2642.58 1108.15 2644.16 1095C2647.93 1063.52 2653 1032.79 2653 1001C2653 991.879 2655.8 963.247 2643.96 959.851C2640.03 958.725 2636.55 962.432 2634.17 965.015C2627.47 972.298 2623.23 981.705 2617.95 990C2602.3 1014.57 2574.18 1035.19 2545 1039.7C2514.04 1044.49 2482.16 1031.18 2464.52 1005C2453.77 989.037 2447.29 955.239 2423 956.043C2397.13 956.9 2376.78 988.337 2358 1002.99C2324.39 1029.2 2280.45 1048.86 2237 1046.96C2199.05 1045.3 2163.53 1028.18 2138.17 1000C2129.36 990.208 2122.79 978.924 2117.31 967C2113.91 959.597 2110.58 951.608 2101 952.109C2082.55 953.073 2066.61 983.944 2056.34 997C2030.89 1029.34 2001.28 1061.97 1962 1077.19C1925.61 1091.29 1880.9 1087.4 1854.44 1056C1841.88 1041.1 1836.46 1004.14 1813 1003.26C1789.82 1002.4 1774.98 1031.35 1760 1044.83C1735.55 1066.84 1697.29 1082 1664 1078.83C1626.92 1075.3 1592.1 1060.1 1567.75 1031C1556.81 1017.92 1549.94 1004.22 1542.68 989C1540.05 983.493 1535.77 977.477 1529 977.296C1521.21 977.088 1513.22 987.239 1508 992.089C1492.64 1006.37 1476.99 1020.51 1460 1032.85C1416.48 1064.46 1362.12 1082.98 1308 1077.83C1261.38 1073.39 1215.45 1052.53 1184.29 1017C1171.26 1002.15 1161.9 985.853 1153.69 968C1150.32 960.656 1145 951.78 1136 951.12C1125.61 950.357 1119.88 959.819 1114.35 967C1104.8 979.382 1093.26 990.522 1081 1000.2C1045.41 1028.29 995.791 1047.79 950 1040.56C937.12 1038.53 924.202 1034.06 913 1027.4C831.859 979.125 849.859 871.494 874.667 797C876.664 791.002 878.732 785.022 880.656 779C889.513 751.28 905.654 698.916 862 691.174C829.84 685.471 818.374 736.757 807.753 758C768.674 836.158 716.897 906.017 651 963.715C616.058 994.309 578.931 1022.55 538 1044.69C447.53 1093.62 342.841 1107.37 244 1077.72C208.089 1066.95 174.488 1049.54 146 1025C119.167 1001.89 96.1624 975.097 77.4252 945C43.2698 890.137 21.8355 826.531 11.2469 763C7.72111 741.845 4.58875 720.391 3.08951 699C2.37115 688.751 3.92598 673.356 0 664M2999 946C2997.19 968.193 2980.98 988.675 2971.25 1008C2938.47 1073.09 2888.61 1133.61 2827 1173.31C2809.77 1184.41 2791.79 1194.4 2773 1202.58C2764.01 1206.49 2748.63 1209.2 2741.43 1215.7C2738.3 1218.53 2737.82 1224.13 2736.71 1228C2734.1 1237.07 2731.2 1246.13 2727.95 1255C2718.53 1280.69 2705.61 1305.32 2690.33 1328C2642.71 1398.65 2571.5 1450.17 2491 1477C2461.36 1486.88 2429.43 1495 2398 1495L2398 1496L3000 1496L3000 1106L3000 994C3000 980.485 3004.21 958.408 2999 946M2423 1228.42C2381.2 1233.91 2336.66 1240.59 2308.51 1276C2302.51 1283.55 2297.83 1291.99 2294.43 1301C2291.84 1307.85 2290.04 1314.65 2290 1322C2289.74 1376.75 2355.65 1390.97 2399 1385.71C2464.38 1377.79 2527.19 1346.24 2571.17 1297C2582.06 1284.8 2590.48 1271.65 2599.34 1258C2602.32 1253.41 2608.13 1245.9 2604.97 1240.11C2602.68 1235.93 2597.28 1235.13 2593 1235.01C2582.34 1234.74 2571.62 1234.84 2561 1233.83C2534.39 1231.3 2507.69 1230.13 2481 1228.96C2462.12 1228.13 2441.85 1225.95 2423 1228.42z"/>
</svg>
