<?xml version="1.0" encoding="UTF-8" standalone="no"?>
<!-- Uploaded to: SVG Repo, www.svgrepo.com, Generator: SVG Repo Mixer Tools -->

<svg
   width="800px"
   height="800px"
   viewBox="0 0 24 24"
   fill="none"
   version="1.1"
   id="svg4"
   sodipodi:docname="etherpad.svg"
   inkscape:version="1.2.2 (b0a8486541, 2022-12-01)"
   xmlns:inkscape="http://www.inkscape.org/namespaces/inkscape"
   xmlns:sodipodi="http://sodipodi.sourceforge.net/DTD/sodipodi-0.dtd"
   xmlns="http://www.w3.org/2000/svg"
   xmlns:svg="http://www.w3.org/2000/svg">
  <style
     id="style967">.cls-1 {  }
</style>
  <defs
     id="defs8" />
  <sodipodi:namedview
     id="namedview6"
     pagecolor="#ffffff"
     bordercolor="#666666"
     borderopacity="1.0"
     inkscape:showpageshadow="2"
     inkscape:pageopacity="0.0"
     inkscape:pagecheckerboard="0"
     inkscape:deskcolor="#d1d1d1"
     showgrid="false"
     inkscape:zoom="0.295"
     inkscape:cx="164.40678"
     inkscape:cy="400"
     inkscape:window-width="1128"
     inkscape:window-height="683"
     inkscape:window-x="0"
     inkscape:window-y="0"
     inkscape:window-maximized="1"
     inkscape:current-layer="svg4" />
  <path
     d="M 12,0 A 3.1304348,3.1304348 0 0 0 8.8695652,3.1304348 H 5.1130434 A 2.5043478,2.5043478 0 0 0 2.6086956,5.6347826 V 21.495652 A 2.5043478,2.5043478 0 0 0 5.1130434,24 H 18.886956 a 2.5043478,2.5043478 0 0 0 2.504348,-2.504348 V 5.6347826 A 2.5043478,2.5043478 0 0 0 18.886956,3.1304348 H 15.130434 A 3.1304348,3.1304348 0 0 0 12,0 Z m -1.043478,3.1304348 a 1.0434782,1.0434782 0 1 1 2.086956,0 1.0434782,1.0434782 0 0 1 -2.086956,0 z M 5.7391304,10.434782 A 1.0434782,1.0434782 0 0 1 6.7826086,9.3913044 H 17.217392 a 1.0434782,1.0434782 0 1 1 0,2.0869556 H 6.7826086 A 1.0434782,1.0434782 0 0 1 5.7391304,10.434782 Z m 0,3.130436 A 1.0434782,1.0434782 0 0 1 6.7826086,12.52174 H 17.217392 a 1.0434782,1.0434782 0 1 1 0,2.086956 H 6.7826086 A 1.0434782,1.0434782 0 0 1 5.7391304,13.565218 Z m 0,3.130434 a 1.0434782,1.0434782 0 0 1 1.0434782,-1.043478 h 6.2608694 a 1.0434782,1.0434782 0 1 1 0,2.086956 H 6.7826086 A 1.0434782,1.0434782 0 0 1 5.7391304,16.695652 Z"
     id="path2"
     class="cls-1"
     fill-rule="evenodd"
     fill="currentColor"
     clip-rule="evenodd"
     style="stroke-width:1.04348" />
</svg>
