<?xml version="1.0" encoding="UTF-8" standalone="no"?>
<svg
   viewBox="0 0 380 380"
   version="1.1"
   id="svg9"
   sodipodi:docname="gitlab.svg"
   inkscape:version="1.2.2 (b0a8486541, 2022-12-01)"
   xmlns:inkscape="http://www.inkscape.org/namespaces/inkscape"
   xmlns:sodipodi="http://sodipodi.sourceforge.net/DTD/sodipodi-0.dtd"
   xmlns="http://www.w3.org/2000/svg"
   xmlns:svg="http://www.w3.org/2000/svg">
  <sodipodi:namedview
     id="namedview11"
     pagecolor="#ffffff"
     bordercolor="#666666"
     borderopacity="1.0"
     inkscape:showpageshadow="2"
     inkscape:pageopacity="0.0"
     inkscape:pagecheckerboard="0"
     inkscape:deskcolor="#d1d1d1"
     showgrid="false"
     inkscape:zoom="0.62105263"
     inkscape:cx="57.966102"
     inkscape:cy="190"
     inkscape:window-width="1128"
     inkscape:window-height="683"
     inkscape:window-x="0"
     inkscape:window-y="0"
     inkscape:window-maximized="1"
     inkscape:current-layer="svg9" />
  <defs
     id="defs4">
    <style
       id="style2">
.cls-1 { 
    fill:currentColor;
}</style>
  </defs>
  <path
     class="cls-1"
     d="m 373.68916,151.89047 -0.53425,-1.36529 -51.72298,-134.986302 a 13.474886,13.474886 0 0 0 -5.32268,-6.4109592 13.850837,13.850837 0 0 0 -15.82953,0.8508371 13.850837,13.850837 0 0 0 -4.59056,6.9649921 L 260.76526,123.79306 H 119.34821 L 84.424318,16.943748 A 13.57382,13.57382 0 0 0 79.833755,9.958969 13.850837,13.850837 0 0 0 64.004227,9.1081319 13.593607,13.593607 0 0 0 58.681548,15.519091 L 6.859631,150.44603 6.3451714,151.81133 A 96.045661,96.045661 0 0 0 38.202096,262.81589 l 0.178083,0.13851 0.474886,0.33638 78.791475,59.00456 38.98021,29.50229 23.74429,17.92694 a 15.968036,15.968036 0 0 0 19.31203,0 l 23.74429,-17.92694 38.98021,-29.50229 79.26637,-59.36073 0.19786,-0.15829 a 96.085235,96.085235 0 0 0 31.81736,-110.88585 z"
     id="path6"
     style="stroke-width:1.97869;fill-rule:nonzero;fill-opacity:1;" />
</svg>
